<svg width="32" height="33" viewBox="0 0 32 33" fill="none" xmlns="http://www.w3.org/2000/svg">
<path d="M20.6667 7.83333C22.1333 7.83333 23.3333 6.63333 23.3333 5.16667C23.3333 3.7 22.1333 2.5 20.6667 2.5C19.2 2.5 18 3.7 18 5.16667C18 6.63333 19.2 7.83333 20.6667 7.83333ZM6.66667 16.5C2.93333 16.5 0 19.4333 0 23.1667C0 26.9 2.93333 29.8333 6.66667 29.8333C10.4 29.8333 13.3333 26.9 13.3333 23.1667C13.3333 19.4333 10.4 16.5 6.66667 16.5ZM6.66667 27.8333C4.13333 27.8333 2 25.7 2 23.1667C2 20.6333 4.13333 18.5 6.66667 18.5C9.2 18.5 11.3333 20.6333 11.3333 23.1667C11.3333 25.7 9.2 27.8333 6.66667 27.8333ZM14.4 14.5L17.6 11.3L18.6667 12.3667C20.4 14.1 22.6667 15.1667 25.4667 15.1667V12.5C23.4667 12.5 21.8667 11.7 20.6667 10.5L18.1333 7.96667C17.4667 7.43333 16.8 7.16667 16 7.16667C15.2 7.16667 14.5333 7.43333 14.1333 7.96667L10.4 11.7C9.86667 12.2333 9.6 12.9 9.6 13.5667C9.6 14.3667 9.86667 15.0333 10.4 15.4333L14.6667 19.1667V25.8333H17.3333V17.5667L14.4 14.5ZM25.3333 16.5C21.6 16.5 18.6667 19.4333 18.6667 23.1667C18.6667 26.9 21.6 29.8333 25.3333 29.8333C29.0667 29.8333 32 26.9 32 23.1667C32 19.4333 29.0667 16.5 25.3333 16.5ZM25.3333 27.8333C22.8 27.8333 20.6667 25.7 20.6667 23.1667C20.6667 20.6333 22.8 18.5 25.3333 18.5C27.8667 18.5 30 20.6333 30 23.1667C30 25.7 27.8667 27.8333 25.3333 27.8333Z" fill="#3D6FF5"/>
</svg>
